<svg width="100" height="100" viewBox="0 0 100 100" fill="none" xmlns="http://www.w3.org/2000/svg">
<rect width="100" height="100" rx="50" fill="#D9D9D9" fill-opacity="0.5"/>
<path d="M64.4823 49.7664C68.3247 46.7599 71.1293 42.6371 72.506 37.9715C73.8826 33.306 73.7628 28.3297 72.1632 23.7351C70.5636 19.1404 67.5639 15.1558 63.5812 12.3357C59.5985 9.5155 54.831 8 49.9419 8C45.0528 8 40.2853 9.5155 36.3026 12.3357C32.3199 15.1558 29.3201 19.1404 27.7205 23.7351C26.1209 28.3297 26.0011 33.306 27.3778 37.9715C28.7544 42.6371 31.559 46.7599 35.4014 49.7664C28.8174 52.3897 23.0726 56.7408 18.7794 62.3558C14.4863 67.9707 11.8058 74.6391 11.0236 81.65C10.967 82.1618 11.0123 82.6798 11.157 83.1742C11.3017 83.6687 11.5428 84.1299 11.8667 84.5317C12.5209 85.343 13.4723 85.8628 14.5118 85.9765C15.5512 86.0902 16.5935 85.7886 17.4094 85.138C18.2252 84.4875 18.7478 83.5412 18.8622 82.5075C19.7228 74.8881 23.3759 67.8512 29.1236 62.7412C34.8713 57.6311 42.3107 54.8063 50.0203 54.8063C57.7298 54.8063 65.1692 57.6311 70.9169 62.7412C76.6646 67.8512 80.3177 74.8881 81.1783 82.5075C81.2849 83.4652 81.7444 84.3498 82.4682 84.9904C83.192 85.631 84.1287 85.9823 85.0976 85.9765H85.5287C86.5561 85.8589 87.4951 85.3423 88.1412 84.5392C88.7872 83.7361 89.0879 82.7116 88.9777 81.6889C88.1918 74.6582 85.4969 67.9727 81.1817 62.3491C76.8665 56.7255 71.0938 52.3758 64.4823 49.7664ZM49.9419 46.9989C46.8412 46.9989 43.8103 46.0845 41.2322 44.3714C38.6541 42.6582 36.6447 40.2232 35.4582 37.3744C34.2716 34.5255 33.9612 31.3906 34.5661 28.3663C35.171 25.3419 36.6641 22.5639 38.8565 20.3834C41.049 18.203 43.8424 16.7181 46.8834 16.1165C49.9245 15.5149 53.0766 15.8237 55.9412 17.0037C58.8058 18.1838 61.2542 20.1821 62.9768 22.746C64.6995 25.31 65.6189 28.3243 65.6189 31.4079C65.6189 35.5429 63.9672 39.5086 61.0272 42.4324C58.0872 45.3563 54.0997 46.9989 49.9419 46.9989Z" fill="#180A01"/>
</svg>
