<svg width="28" height="28" viewBox="0 0 28 28" fill="none" xmlns="http://www.w3.org/2000/svg">
<path d="M21.4726 22.7703C20.3232 19.6961 17.3592 17.5073 13.884 17.5073C10.4088 17.5073 7.44481 19.6961 6.2954 22.7703M21.4726 22.7703C23.9119 20.6491 25.454 17.5228 25.454 14.0363C25.454 7.64639 20.2739 2.46631 13.884 2.46631C7.49404 2.46631 2.31396 7.64639 2.31396 14.0363C2.31396 17.5228 3.85607 20.6491 6.2954 22.7703M21.4726 22.7703C19.4411 24.5369 16.7875 25.6064 13.884 25.6064C10.9805 25.6064 8.32684 24.5369 6.2954 22.7703M17.355 10.5653C17.355 12.4823 15.801 14.0363 13.884 14.0363C11.967 14.0363 10.413 12.4823 10.413 10.5653C10.413 8.64834 11.967 7.09432 13.884 7.09432C15.801 7.09432 17.355 8.64834 17.355 10.5653Z" stroke="#E8D9B9" stroke-width="1.7355" stroke-linejoin="round"/>
</svg>
